<mxfile host="Electron" modified="2024-02-27T08:20:09.838Z" agent="Mozilla/5.0 (Windows NT 10.0; Win64; x64) AppleWebKit/537.36 (KHTML, like Gecko) draw.io/23.1.5 Chrome/120.0.6099.109 Electron/28.1.0 Safari/537.36" etag="869NYjRDulhzkotrGTCH" version="23.1.5" type="device">
  <diagram name="第 1 页" id="yG3mrkhUKkQEeQuNbQKo">
    <mxGraphModel dx="2261" dy="836" grid="1" gridSize="10" guides="1" tooltips="1" connect="1" arrows="1" fold="1" page="1" pageScale="1" pageWidth="827" pageHeight="1169" math="1" shadow="0">
      <root>
        <mxCell id="0" />
        <mxCell id="1" parent="0" />
        <mxCell id="e_jyuRc1yyHRpt1avyiy-2" value="" style="sketch=0;aspect=fixed;pointerEvents=1;shadow=0;dashed=0;html=1;strokeColor=none;labelPosition=center;verticalLabelPosition=bottom;verticalAlign=top;align=center;fillColor=#00188D;shape=mxgraph.mscae.enterprise.server_generic" parent="1" vertex="1">
          <mxGeometry x="70" y="190" width="24" height="50" as="geometry" />
        </mxCell>
        <mxCell id="e_jyuRc1yyHRpt1avyiy-4" value="" style="sketch=0;aspect=fixed;pointerEvents=1;shadow=0;dashed=0;html=1;strokeColor=none;labelPosition=center;verticalLabelPosition=bottom;verticalAlign=top;align=center;fillColor=#00188D;shape=mxgraph.azure.computer" parent="1" vertex="1">
          <mxGeometry x="250" y="192.5" width="50" height="45" as="geometry" />
        </mxCell>
        <mxCell id="e_jyuRc1yyHRpt1avyiy-5" value="$$\mathcal{S}_{\mathrm{Hint}}$$" style="text;html=1;align=center;verticalAlign=middle;resizable=0;points=[];autosize=1;strokeColor=none;fillColor=none;" parent="1" vertex="1">
          <mxGeometry x="-18" y="240" width="200" height="30" as="geometry" />
        </mxCell>
        <mxCell id="e_jyuRc1yyHRpt1avyiy-6" value="$$\mathcal{C}$$" style="text;html=1;align=center;verticalAlign=middle;resizable=0;points=[];autosize=1;strokeColor=none;fillColor=none;" parent="1" vertex="1">
          <mxGeometry x="220" y="240" width="110" height="30" as="geometry" />
        </mxCell>
        <mxCell id="e_jyuRc1yyHRpt1avyiy-7" value="" style="sketch=0;aspect=fixed;pointerEvents=1;shadow=0;dashed=0;html=1;strokeColor=none;labelPosition=center;verticalLabelPosition=bottom;verticalAlign=top;align=center;fillColor=#00188D;shape=mxgraph.mscae.enterprise.server_generic" parent="1" vertex="1">
          <mxGeometry x="430" y="190" width="24" height="50" as="geometry" />
        </mxCell>
        <mxCell id="e_jyuRc1yyHRpt1avyiy-8" value="$$\mathcal{S}_{\mathrm{Query}}$$" style="text;html=1;align=center;verticalAlign=middle;resizable=0;points=[];autosize=1;strokeColor=none;fillColor=none;" parent="1" vertex="1">
          <mxGeometry x="337" y="240" width="210" height="30" as="geometry" />
        </mxCell>
        <mxCell id="e_jyuRc1yyHRpt1avyiy-9" value="" style="endArrow=classic;html=1;rounded=0;" parent="1" edge="1">
          <mxGeometry width="50" height="50" relative="1" as="geometry">
            <mxPoint x="240" y="200" as="sourcePoint" />
            <mxPoint x="110" y="200" as="targetPoint" />
          </mxGeometry>
        </mxCell>
        <mxCell id="e_jyuRc1yyHRpt1avyiy-12" value="" style="endArrow=classic;html=1;rounded=0;" parent="1" edge="1">
          <mxGeometry width="50" height="50" relative="1" as="geometry">
            <mxPoint x="110" y="230" as="sourcePoint" />
            <mxPoint x="240" y="230" as="targetPoint" />
          </mxGeometry>
        </mxCell>
        <mxCell id="e_jyuRc1yyHRpt1avyiy-15" value="" style="endArrow=classic;html=1;rounded=0;" parent="1" edge="1">
          <mxGeometry width="50" height="50" relative="1" as="geometry">
            <mxPoint x="310" y="200" as="sourcePoint" />
            <mxPoint x="420" y="200" as="targetPoint" />
          </mxGeometry>
        </mxCell>
        <mxCell id="e_jyuRc1yyHRpt1avyiy-16" value="$$S\setminus \{i\}=\{1,5\}$$" style="text;html=1;align=center;verticalAlign=middle;resizable=0;points=[];autosize=1;strokeColor=none;fillColor=none;" parent="1" vertex="1">
          <mxGeometry x="275" y="170" width="170" height="30" as="geometry" />
        </mxCell>
        <mxCell id="e_jyuRc1yyHRpt1avyiy-17" value="" style="endArrow=classic;html=1;rounded=0;" parent="1" edge="1">
          <mxGeometry width="50" height="50" relative="1" as="geometry">
            <mxPoint x="420" y="230" as="sourcePoint" />
            <mxPoint x="310" y="230" as="targetPoint" />
          </mxGeometry>
        </mxCell>
        <mxCell id="e_jyuRc1yyHRpt1avyiy-18" value="$$Answer=\mathcal{D}_1+\mathcal{D}_5$$" style="text;html=1;align=center;verticalAlign=middle;resizable=0;points=[];autosize=1;strokeColor=none;fillColor=none;" parent="1" vertex="1">
          <mxGeometry x="232" y="228" width="260" height="30" as="geometry" />
        </mxCell>
        <mxCell id="otxMO95jOJatcsNWIxTU-1" value="$$i=3$$" style="text;html=1;align=center;verticalAlign=middle;resizable=0;points=[];autosize=1;strokeColor=none;fillColor=none;" parent="1" vertex="1">
          <mxGeometry x="240" y="160" width="70" height="30" as="geometry" />
        </mxCell>
        <mxCell id="xqAQPhnI8fzefglDeo1I-1" value="$$\mathcal{D}_3=Hint-Answer$$" style="text;html=1;align=center;verticalAlign=middle;resizable=0;points=[];autosize=1;strokeColor=none;fillColor=none;" parent="1" vertex="1">
          <mxGeometry x="220" y="260" width="200" height="30" as="geometry" />
        </mxCell>
        <mxCell id="xqAQPhnI8fzefglDeo1I-3" value="" style="endArrow=none;dashed=1;html=1;rounded=0;strokeColor=#BABABA;" parent="1" edge="1">
          <mxGeometry width="50" height="50" relative="1" as="geometry">
            <mxPoint x="245" y="280" as="sourcePoint" />
            <mxPoint x="245" y="140" as="targetPoint" />
          </mxGeometry>
        </mxCell>
        <mxCell id="xqAQPhnI8fzefglDeo1I-4" value="Offline Phase" style="text;html=1;align=center;verticalAlign=middle;resizable=0;points=[];autosize=1;strokeColor=none;fillColor=none;" parent="1" vertex="1">
          <mxGeometry x="122" y="130" width="100" height="30" as="geometry" />
        </mxCell>
        <mxCell id="xqAQPhnI8fzefglDeo1I-5" value="Online Phase" style="text;html=1;align=center;verticalAlign=middle;resizable=0;points=[];autosize=1;strokeColor=none;fillColor=none;" parent="1" vertex="1">
          <mxGeometry x="310" y="130" width="100" height="30" as="geometry" />
        </mxCell>
        <mxCell id="Ubiw2Db4R6uKMduc2mlu-1" value="$$Hint=\mathcal{D}_1+\mathcal{D}_3+\mathcal{D}_5&lt;br&gt;$$" style="text;html=1;align=center;verticalAlign=middle;resizable=0;points=[];autosize=1;strokeColor=none;fillColor=none;" parent="1" vertex="1">
          <mxGeometry x="20" y="223" width="310" height="40" as="geometry" />
        </mxCell>
        <mxCell id="Ubiw2Db4R6uKMduc2mlu-2" value="$$S=\{1,3,5\}$$" style="text;html=1;align=center;verticalAlign=middle;resizable=0;points=[];autosize=1;strokeColor=none;fillColor=none;" parent="1" vertex="1">
          <mxGeometry x="115" y="168" width="110" height="30" as="geometry" />
        </mxCell>
      </root>
    </mxGraphModel>
  </diagram>
</mxfile>
